<svg width="477" height="138" viewBox="0 0 477 138" fill="none" xmlns="http://www.w3.org/2000/svg">
<circle cx="69" cy="69" r="69" fill="#0D3349"/>
<path fill-rule="evenodd" clip-rule="evenodd" d="M74.7705 29.1367L74.3053 28.6973L73.744 29.0005C70.7833 30.5994 67.2163 30.5994 64.2556 29.0005L63.6745 28.6866L63.2242 29.112C60.7782 31.4227 57.3328 32.3459 54.0591 31.5678L53.4562 31.4245L53.1097 31.987C51.3451 34.8521 48.256 36.6356 44.8925 36.7312L44.2542 36.7494L44.0711 37.3626C43.1081 40.5868 40.5859 43.109 37.3617 44.0719L36.7494 44.2548L36.7312 44.8916C36.6356 48.2552 34.8521 51.3443 31.987 53.1089L31.4261 53.4543L31.5695 54.0574C32.3477 57.3311 31.4245 60.7765 29.1137 63.2225L28.6872 63.674L29.0013 64.2556C30.6002 67.2163 30.6002 70.7833 29.0013 73.744L28.6972 74.307L29.1359 74.7713C31.4466 77.2173 32.3698 80.6628 31.5916 83.9365L31.4442 84.5569L31.987 84.8912C34.8521 86.6558 36.6356 89.7449 36.7312 93.1084L36.7499 93.7661L37.3455 93.9439C40.5697 94.9069 43.0919 97.4291 44.0548 100.653L44.2329 101.25L44.8925 101.268C48.256 101.364 51.3451 103.147 53.1097 106.013L53.4452 106.557L54.0652 106.41C57.3388 105.632 60.7843 106.555 63.2303 108.866L63.6934 109.303L64.2556 109C67.2163 107.401 70.7833 107.401 73.744 109L74.3236 109.313L74.7762 108.885C77.2222 106.574 80.6677 105.651 83.9414 106.429L84.5468 106.573L84.892 106.013C86.6566 103.147 89.7457 101.364 93.1093 101.268L93.7474 101.25L93.9297 100.64C94.8926 97.4157 97.4148 94.8935 100.639 93.9306L101.25 93.748L101.268 93.1084C101.364 89.7449 103.147 86.6558 106.013 84.8912L106.575 84.5449L106.431 83.9396C105.653 80.6659 106.576 77.2205 108.887 74.7745L109.313 74.3231L109 73.744C107.401 70.7833 107.401 67.2163 109 64.2556L109.303 63.6951L108.865 63.2312C106.554 60.7851 105.631 57.3397 106.409 54.066L106.557 53.4441L106.013 53.1089C103.147 51.3443 101.364 48.2552 101.268 44.8916L101.25 44.2307L100.655 44.0531C97.4308 43.0902 94.9086 40.5679 93.9456 37.3438L93.7683 36.75L93.1093 36.7312C89.7457 36.6356 86.6566 34.8521 84.892 31.987L84.558 31.4446L83.9356 31.5925C80.6619 32.3707 77.2165 31.4475 74.7705 29.1367ZM72.8497 27.3221L68.9843 23.6705L65.1302 27.3115L65.1592 27.3272C67.556 28.6216 70.4436 28.6216 72.8403 27.3272L72.8497 27.3221ZM67.5996 22.3624L62.1868 17.2489L58.2708 23.6071L63.3682 26.3599L67.5996 22.3624ZM49.8711 17.9425L49.5809 18.9141L56.5948 22.702L60.7749 15.915L60.0375 15.2184C56.6915 12.0575 51.1883 13.5321 49.8711 17.9425ZM49.025 20.7752L46.8942 27.9099L52.5581 29.2563L55.596 24.3238L49.025 20.7752ZM51.5079 30.9613L46.3491 29.7351L44.8273 34.8306L44.8384 34.8303C47.5613 34.7529 50.062 33.3091 51.4904 30.9898L51.5079 30.9613ZM34.8306 44.8279L29.7372 46.3491L30.963 51.5061L30.9897 51.4896C33.3091 50.0611 34.7529 47.5604 34.8303 44.8376L34.8306 44.8279ZM27.9121 46.8942L20.7762 49.0254L24.3241 55.595L29.258 52.5562L27.9121 46.8942ZM15.2175 60.0383L15.9135 60.775L22.7023 56.5938L18.9151 49.5812L17.9416 49.8719C13.5312 51.1891 12.0566 56.6924 15.2175 60.0383ZM17.2473 62.187L22.3616 67.6006L26.3605 63.3677L23.6074 58.2698L17.2473 62.187ZM23.6697 68.9852L27.322 72.8514L27.328 72.8403C28.6224 70.4436 28.6224 67.556 27.328 65.1592L27.312 65.1297L23.6697 68.9852ZM30.9811 86.5051L29.7519 91.676L34.8312 93.193L34.8303 93.1625C34.7529 90.4396 33.3091 87.9389 30.9898 86.5104L30.9811 86.5051ZM29.3114 93.5292L27.5887 100.776L35.0528 100.989L34.8881 95.1947L29.3114 93.5292ZM34.3468 111.097L35.3336 110.863L35.107 102.893L27.1396 102.666L26.9045 103.655C25.8401 108.133 29.8687 112.162 34.3468 111.097ZM37.2233 110.413L44.4705 108.691L42.8043 103.111L37.011 102.947L37.2233 110.413ZM46.3237 108.25L51.497 107.02L51.4904 107.01C50.062 104.69 47.5613 103.247 44.8384 103.169L44.806 103.168L46.3237 108.25ZM65.149 110.678L69.0135 114.329L72.8679 110.688L72.8403 110.673C70.4436 109.379 67.556 109.379 65.1592 110.673L65.149 110.678ZM70.3981 115.637L75.8134 120.753L79.7301 114.394L74.6299 111.639L70.3981 115.637ZM88.1297 120.06L88.4203 119.087L81.4061 115.299L77.2253 122.087L77.9633 122.784C81.3092 125.945 86.8125 124.47 88.1297 120.06ZM88.9762 117.226L91.1081 110.088L85.4448 108.741L82.405 113.677L88.9762 117.226ZM91.6532 108.262L93.1744 103.169L93.1633 103.169C90.4405 103.247 87.9398 104.69 86.5113 107.01L86.495 107.036L91.6532 108.262ZM103.169 93.175L108.265 91.6531L107.038 86.4931L107.01 86.5105C104.69 87.9389 103.247 90.4396 103.169 93.1625L103.169 93.175ZM110.09 91.108L117.227 88.9765L113.677 82.404L108.743 85.443L110.09 91.108ZM122.783 77.9642L122.085 77.2255L115.299 81.4051L119.088 88.4206L120.059 88.1306C124.47 86.8134 125.944 81.3101 122.783 77.9642ZM120.752 75.8135L115.636 70.399L111.64 74.6294L114.394 79.7291L120.752 75.8135ZM114.328 69.0144L110.678 65.1507L110.674 65.1592C109.379 67.556 109.379 70.4436 110.674 72.8403L110.688 72.8674L114.328 69.0144ZM107.02 51.4959L108.25 46.3214L103.168 44.8037L103.169 44.8376C103.247 47.5604 104.69 50.0611 107.01 51.4896L107.02 51.4959ZM108.691 44.4683L110.413 37.2232L102.947 37.011L103.111 42.802L108.691 44.4683ZM103.654 26.9054L102.666 27.1402L102.893 35.1069L110.862 35.3335L111.096 34.3477C112.161 29.8696 108.132 25.8409 103.654 26.9054ZM100.776 27.5894L93.5315 29.3115L95.197 34.8881L100.989 35.0528L100.776 27.5894ZM91.6783 29.752L86.5062 30.9815L86.5113 30.9898C87.9398 33.3091 90.4405 34.7529 93.1633 34.8303L93.1953 34.8312L91.6783 29.752ZM76.0868 27.7352C78.0652 29.6017 80.8498 30.348 83.4964 29.7209L80.7292 25.2281L76.0868 27.7352ZM79.7303 23.6062L74.6311 26.3601L70.3842 22.348L75.8027 17.2291L79.7303 23.6062ZM82.4052 24.323L85.4446 29.2578L91.1273 27.907L88.9941 20.7646L82.4052 24.323ZM88.4383 18.9035L81.4063 22.7011L77.2146 15.8952L77.973 15.1787C81.319 12.0178 86.8223 13.4924 88.1395 17.9028L88.4383 18.9035ZM90.7032 19.8416L92.9804 27.4665L100.721 25.6267L100.692 24.6321C100.561 20.0311 95.6273 17.1823 91.5773 19.3696L90.7032 19.8416ZM102.61 25.1775L102.593 24.578C102.422 18.5613 95.9698 14.8361 90.6737 17.6963L90.1474 17.9805L89.9616 17.3586C88.2391 11.5912 81.0425 9.66286 76.6671 13.7964L76.196 14.2414L75.8826 13.7325C72.7261 8.60739 65.2756 8.6074 62.1191 13.7325L61.8047 14.2429L61.3341 13.7983C56.9586 9.66478 49.762 11.5931 48.0395 17.3605L47.8541 17.9815L47.3259 17.6963C42.0297 14.8361 35.5774 18.5613 35.4064 24.578L35.3894 25.1752L34.7595 25.0255C28.9035 23.6335 23.6352 28.9018 25.0272 34.7577L25.1773 35.3893L24.5788 35.4064C18.5621 35.5774 14.8369 42.0297 17.6971 47.3259L17.9821 47.8536L17.361 48.0391C11.5936 49.7615 9.66527 56.9581 13.7988 61.3336L14.243 61.8038L13.7325 62.1183C8.60739 65.2748 8.60741 72.7253 13.7325 75.8818L14.2419 76.1955L13.7981 76.6654C9.66458 81.0408 11.5929 88.2374 17.3603 89.9599L17.9823 90.1457L17.6971 90.6737C14.8369 95.9698 18.5621 102.422 24.5788 102.593L25.1779 102.61L25.0279 103.241C23.6359 109.097 28.9042 114.365 34.7602 112.973L35.3894 112.824L35.4064 113.422C35.5774 119.439 42.0297 123.164 47.3259 120.304L47.8538 120.019L48.0388 120.638C49.7613 126.406 56.9579 128.334 61.3334 124.201L61.8042 123.756L62.1191 124.267C65.2756 129.392 72.7261 129.392 75.8826 124.267L76.1965 123.757L76.6678 124.203C81.0432 128.336 88.2398 126.408 89.9623 120.64L90.1477 120.02L90.6737 120.304C95.9698 123.164 102.422 119.439 102.593 113.422L102.61 112.822L103.241 112.972C109.097 114.364 114.365 109.095 112.973 103.239L112.824 102.61L113.423 102.593C119.44 102.422 123.165 95.9698 120.305 90.6737L120.02 90.1471L120.641 89.9618C126.408 88.2393 128.337 81.0427 124.203 76.6673L123.758 76.1956L124.267 75.8818C129.392 72.7253 129.392 65.2748 124.267 62.1183L123.756 61.8038L124.202 61.3317C128.336 56.9562 126.408 49.7596 120.64 48.0371L120.02 47.8521L120.305 47.3259C123.165 42.0297 119.44 35.5774 113.423 35.4064L112.824 35.3893L112.974 34.7596C114.366 28.9037 109.098 23.6354 103.242 25.0274L102.61 25.1775ZM101.043 36.9568L95.77 36.8069C96.5505 39.4112 98.5882 41.4487 101.193 42.229L101.043 36.9568ZM108.28 54.5056C107.654 57.1516 108.4 59.9354 110.265 61.9136L112.772 57.2719L108.28 54.5056ZM113.677 55.5959L108.743 52.5573L110.095 46.8724L117.236 49.0053L113.677 55.5959ZM114.394 58.2708L111.64 63.3693L115.651 67.6145L120.769 62.1971L114.394 58.2708ZM122.103 60.7852L115.299 56.5948L119.097 49.5611L120.096 49.8593C124.506 51.1765 125.981 56.6798 122.82 60.0257L122.103 60.7852ZM122.423 63.2157L116.959 68.9991L122.424 74.7837L123.27 74.2626C127.189 71.8487 127.189 66.1513 123.27 63.7375L122.423 63.2157ZM112.772 80.728L110.265 76.0851C108.399 78.0637 107.653 80.8482 108.28 83.4948L112.772 80.728ZM101.193 95.7702C98.5883 96.5506 96.5508 98.5882 95.7705 101.193L101.043 101.043L101.193 95.7702ZM102.947 100.989L103.111 95.1971L108.71 93.5252L110.433 100.776L102.947 100.989ZM100.989 102.947L95.1975 103.111L93.5261 108.708L100.776 110.431L100.989 102.947ZM102.665 110.88L102.893 102.893L110.882 102.665L111.123 103.679C112.188 108.157 108.159 112.186 103.681 111.121L102.665 110.88ZM100.721 112.372L92.981 110.533L90.7035 118.159L91.5773 118.631C95.6273 120.818 100.561 117.969 100.692 113.368L100.721 112.372ZM80.729 112.772L83.4966 108.278C80.8495 107.651 78.0642 108.397 76.0856 110.264L80.729 112.772ZM61.9137 110.264C59.9355 108.399 57.1519 107.653 54.5061 108.28L57.2722 112.771L61.9137 110.264ZM58.2711 114.393L63.3694 111.64L67.6149 115.65L62.1976 120.768L58.2711 114.393ZM55.5962 113.676L52.5578 108.743L46.8743 110.094L49.007 117.235L55.5962 113.676ZM49.5628 119.096L56.5951 115.298L60.7856 122.102L60.0274 122.818C56.6815 125.979 51.1782 124.505 49.861 120.094L49.5628 119.096ZM47.2979 118.158L45.0212 110.534L37.2791 112.375L37.3073 113.368C37.4381 117.969 42.3722 120.818 46.4223 118.631L47.2979 118.158ZM36.9568 101.043L42.2312 101.193C41.4512 98.5868 39.4126 96.5481 36.8069 95.7678L36.9568 101.043ZM29.7214 83.4958C30.3484 80.8494 29.6023 78.0651 27.7361 76.0867L25.229 80.729L29.7214 83.4958ZM24.3239 82.405L29.2583 85.4441L27.9079 91.1253L20.7664 88.9924L24.3239 82.405ZM23.6072 79.7301L26.3609 74.631L22.3485 70.3837L17.2296 75.8022L23.6072 79.7301ZM15.8958 77.2141L22.7021 81.4061L18.9052 88.4366L17.9045 88.1377C13.4942 86.8205 12.0195 81.3173 15.1805 77.9713L15.8958 77.2141ZM15.5758 74.7836L21.0404 68.9991L15.5769 63.2158L14.7298 63.7375C10.8106 66.1513 10.8106 71.8487 14.7298 74.2626L15.5758 74.7836ZM25.2292 57.271L27.7356 61.912C29.6014 59.934 30.3474 57.1504 29.7211 54.5045L25.2292 57.271ZM36.8069 42.2314C39.4128 41.4513 41.4515 39.4127 42.2317 36.8069L36.9569 36.9569L36.8069 42.2314ZM35.0528 37.011L34.8881 42.8044L29.2919 44.4758L27.5681 37.2238L35.0528 37.011ZM35.107 35.107L27.1189 35.3341L26.8773 34.318C25.8129 29.8398 29.8416 25.8112 34.3197 26.8756L35.3342 27.1168L35.107 35.107ZM37.011 35.0529L37.2239 27.566L44.4767 29.29L42.8048 34.8881L37.011 35.0529ZM37.2791 25.6244L45.0218 27.4649L47.2982 19.8426L46.4222 19.3696C42.3722 17.1823 37.4381 20.0311 37.3073 24.6321L37.2791 25.6244ZM57.2719 25.2289L54.5063 29.7194C57.1516 30.3456 59.9346 29.5999 61.9125 27.7351L57.2719 25.2289ZM110.535 45.0192L118.159 47.2962L118.631 46.4222C120.819 42.3722 117.97 37.4381 113.369 37.3073L112.375 37.279L110.535 45.0192ZM110.535 92.9801L112.375 100.721L113.369 100.692C117.97 100.561 120.819 95.6273 118.631 91.5773L118.159 90.703L110.535 92.9801ZM68.9996 116.958L63.2162 122.422L63.7383 123.27C66.1521 127.189 71.8496 127.189 74.2634 123.27L74.7846 122.424L68.9996 116.958ZM27.4674 92.9785L19.8434 90.7015L19.3704 91.5773C17.1832 95.6273 20.0319 100.561 24.6329 100.692L25.6271 100.721L27.4674 92.9785ZM27.4668 45.0209L25.6265 37.2791L24.6329 37.3073C20.0319 37.4381 17.1832 42.3722 19.3704 46.4223L19.8432 47.2977L27.4668 45.0209ZM68.9996 21.0399L74.7841 15.5752L74.2634 14.7298C71.8496 10.8106 66.1521 10.8106 63.7383 14.7298L63.2167 15.5768L68.9996 21.0399ZM91.3334 58.2665C87.6267 65.9451 80.7132 79.0609 74.0911 81.9248C67.4691 84.7887 59.1353 84.7155 54.1 78.8119C52.4758 78.8119 47.8528 80.3061 42.1054 83.7926C47.478 78.8119 61.6217 69.498 72.7167 66.1111C65.7198 67.3563 57.4735 70.2202 51.7261 74.0802C50.2268 69.7221 53.2254 58.8891 62.7212 55.6517C72.217 52.4142 86.9604 56.1497 91.3334 58.2665Z" fill="url(#paint0_linear)"/>
<path d="M170.12 40.04C166.24 40.04 163.08 37.2 163.08 33C163.08 28.8 166.24 25.96 170.12 25.96C172.84 25.96 175.2 27.34 176.36 29.66L183.44 26.34C181.1 21.54 176.1 18.64 170.12 18.64C161.68 18.64 155.24 24.4 155.24 33C155.24 41.6 161.68 47.36 170.12 47.36C176.1 47.36 181.1 44.46 183.44 39.66L176.36 36.34C175.2 38.66 172.84 40.04 170.12 40.04ZM201.644 47H209.144V36C209.144 28.92 206.924 24.62 200.504 24.62C197.264 24.62 194.804 25.74 193.744 27.62V17H186.244V47H193.744V36C193.744 32.86 195.284 30.96 197.904 30.96C200.584 30.96 201.644 32.76 201.644 36V47ZM216.059 22.76C218.419 22.76 220.359 20.8 220.359 18.42C220.359 16.08 218.419 14.12 216.059 14.12C213.679 14.12 211.739 16.08 211.739 18.42C211.739 20.8 213.679 22.76 216.059 22.76ZM212.299 25V47H219.799V25H212.299ZM232.306 24.62C226.646 24.62 222.226 29.2 222.226 36C222.226 42.8 226.646 47.38 232.306 47.38C235.546 47.38 238.046 46.36 239.106 44.38L239.446 47H246.606V25H239.446L239.106 27.62C238.046 25.74 235.546 24.62 232.306 24.62ZM234.406 41.04C231.826 41.04 229.726 39.12 229.726 36C229.726 32.88 231.826 30.96 234.406 30.96C237.006 30.96 239.106 32.88 239.106 36C239.106 39.12 237.006 41.04 234.406 41.04ZM170.12 78.04C166.24 78.04 163.08 75.2 163.08 71C163.08 66.8 166.24 63.96 170.12 63.96C172.84 63.96 175.2 65.34 176.36 67.66L183.44 64.34C181.1 59.54 176.1 56.64 170.12 56.64C161.68 56.64 155.24 62.4 155.24 71C155.24 79.6 161.68 85.36 170.12 85.36C176.1 85.36 181.1 82.46 183.44 77.66L176.36 74.34C175.2 76.66 172.84 78.04 170.12 78.04ZM193.764 63H186.264V74C186.264 81.08 188.404 85.38 194.724 85.38C197.984 85.38 200.304 84.26 201.364 82.38L201.704 85H208.864V63H201.364V74C201.364 77.14 199.984 79.04 197.344 79.04C194.764 79.04 193.764 77.22 193.764 74V63ZM212.377 55V85H219.877V55H212.377ZM225.701 58.12V63H223.041V68.82H225.701V76.68C225.701 82.5 227.861 85.36 233.741 85.36C234.861 85.36 236.921 85.22 238.101 85.04V78.92C236.821 79.14 235.621 79.16 234.681 78.82C233.681 78.52 233.181 77.74 233.181 76.4V68.82H238.101V63H233.181V58.12H225.701ZM244.692 60.76C247.052 60.76 248.992 58.8 248.992 56.42C248.992 54.08 247.052 52.12 244.692 52.12C242.312 52.12 240.372 54.08 240.372 56.42C240.372 58.8 242.312 60.76 244.692 60.76ZM240.932 63V85H248.432V63H240.932ZM268.176 63L263.436 78.34L258.676 63H250.676L257.916 85H268.916L276.176 63H268.176ZM286.29 62.62C280.63 62.62 276.21 67.2 276.21 74C276.21 80.8 280.63 85.38 286.29 85.38C289.53 85.38 292.03 84.36 293.09 82.38L293.43 85H300.59V63H293.43L293.09 65.62C292.03 63.74 289.53 62.62 286.29 62.62ZM288.39 79.04C285.81 79.04 283.71 77.12 283.71 74C283.71 70.88 285.81 68.96 288.39 68.96C290.99 68.96 293.09 70.88 293.09 74C293.09 77.12 290.99 79.04 288.39 79.04ZM306.287 58.12V63H303.627V68.82H306.287V76.68C306.287 82.5 308.447 85.36 314.327 85.36C315.447 85.36 317.507 85.22 318.687 85.04V78.92C317.407 79.14 316.207 79.16 315.267 78.82C314.267 78.52 313.767 77.74 313.767 76.4V68.82H318.687V63H313.767V58.12H306.287ZM325.278 60.76C327.638 60.76 329.578 58.8 329.578 56.42C329.578 54.08 327.638 52.12 325.278 52.12C322.898 52.12 320.958 54.08 320.958 56.42C320.958 58.8 322.898 60.76 325.278 60.76ZM321.518 63V85H329.018V63H321.518ZM343.624 85.36C350.124 85.36 355.824 81.3 355.824 74C355.824 66.7 350.124 62.64 343.624 62.64C337.104 62.64 331.444 66.7 331.444 74C331.444 81.3 337.104 85.36 343.624 85.36ZM343.624 79.04C341.044 79.04 338.924 77.12 338.924 74C338.924 70.88 341.044 68.96 343.624 68.96C346.204 68.96 348.324 70.88 348.324 74C348.324 77.12 346.204 79.04 343.624 79.04ZM373.473 85H380.953V74C380.953 66.92 378.813 62.62 372.493 62.62C369.233 62.62 366.913 63.74 365.853 65.62L365.513 63H358.353V85H365.853V74C365.853 70.86 367.233 68.96 369.893 68.96C372.473 68.96 373.473 70.76 373.473 74V85ZM169.28 107.28V111.9H176.38C175.2 114.14 172.84 116.04 170.12 116.04C166.24 116.04 163.08 113.18 163.08 109C163.08 104.8 166.24 101.96 170.12 101.96C172.84 101.96 175.2 103.34 176.36 105.66L183.44 102.34C181.1 97.54 176.12 94.64 170.12 94.64C161.68 94.64 155.24 100.4 155.24 109C155.24 117.6 161.68 123.36 170.12 123.36C178.54 123.36 185 117.6 185 109V107.28H169.28ZM187.807 101V123H195.307V112C195.307 108.86 197.347 106.96 202.067 106.96V100.64C198.827 100.64 196.587 101.48 195.307 103.44L194.967 101H187.807ZM212.892 100.62C207.232 100.62 202.812 105.2 202.812 112C202.812 118.8 207.232 123.38 212.892 123.38C216.132 123.38 218.632 122.36 219.692 120.38L220.032 123H227.192V101H220.032L219.692 103.62C218.632 101.74 216.132 100.62 212.892 100.62ZM214.992 117.04C212.412 117.04 210.312 115.12 210.312 112C210.312 108.88 212.412 106.96 214.992 106.96C217.592 106.96 219.692 108.88 219.692 112C219.692 115.12 217.592 117.04 214.992 117.04ZM245.856 123H253.336V112C253.336 104.92 251.196 100.62 244.876 100.62C241.616 100.62 239.296 101.74 238.236 103.62L237.896 101H230.736V123H238.236V112C238.236 108.86 239.616 106.96 242.276 106.96C244.856 106.96 245.856 108.76 245.856 112V123ZM257.576 96.12V101H254.916V106.82H257.576V114.68C257.576 120.5 259.736 123.36 265.616 123.36C266.736 123.36 268.796 123.22 269.976 123.04V116.92C268.696 117.14 267.496 117.16 266.556 116.82C265.556 116.52 265.056 115.74 265.056 114.4V106.82H269.976V101H265.056V96.12H257.576ZM307.199 105.3C307.199 99.24 303.299 95 295.559 95H283.579V123H291.579V115.58H294.719L299.119 123H307.139L301.859 114.34C305.419 112.66 307.199 109.4 307.199 105.3ZM291.559 109.26V101.32H294.719C297.459 101.32 299.199 103.06 299.199 105.3C299.199 107.54 297.439 109.26 294.719 109.26H291.559ZM321.046 100.62C314.526 100.62 308.866 104.7 308.866 112C308.866 119.3 314.526 123.38 321.046 123.38C325.406 123.38 329.466 121.46 331.606 117.96L325.226 114.88C324.306 116.56 322.966 117.52 321.046 117.52C319.026 117.52 317.266 116.24 316.626 114.02H332.906C333.606 105.4 328.326 100.62 321.046 100.62ZM321.046 106.48C323.346 106.48 324.946 107.76 325.506 109.98H316.586C317.166 107.76 318.746 106.48 321.046 106.48ZM347.492 117.2C344.912 117.2 342.792 115.28 342.792 112C342.792 108.72 344.912 106.8 347.492 106.8C349.332 106.8 350.912 107.76 351.652 109.84L358.512 107.1C356.752 103.08 352.392 100.64 347.492 100.64C340.972 100.64 335.312 104.7 335.312 112C335.312 119.3 340.972 123.36 347.492 123.36C352.392 123.36 356.752 120.92 358.512 116.9L351.652 114.16C350.912 116.24 349.332 117.2 347.492 117.2ZM364.809 98.76C367.169 98.76 369.109 96.8 369.109 94.42C369.109 92.08 367.169 90.12 364.809 90.12C362.429 90.12 360.489 92.08 360.489 94.42C360.489 96.8 362.429 98.76 364.809 98.76ZM361.049 101V123H368.549V101H361.049ZM386.364 123.38C392.024 123.38 396.444 118.8 396.444 112C396.444 105.2 392.024 100.62 386.364 100.62C383.124 100.62 380.624 101.64 379.564 103.62L379.224 101H372.064V131H379.564V120.38C380.624 122.26 383.124 123.38 386.364 123.38ZM384.264 106.96C386.844 106.96 388.944 108.88 388.944 112C388.944 115.12 386.844 117.04 384.264 117.04C381.664 117.04 379.564 115.12 379.564 112C379.564 108.88 381.664 106.96 384.264 106.96ZM402.738 98.76C405.098 98.76 407.038 96.8 407.038 94.42C407.038 92.08 405.098 90.12 402.738 90.12C400.358 90.12 398.418 92.08 398.418 94.42C398.418 96.8 400.358 98.76 402.738 98.76ZM398.978 101V123H406.478V101H398.978ZM421.085 100.62C414.565 100.62 408.905 104.7 408.905 112C408.905 119.3 414.565 123.38 421.085 123.38C425.445 123.38 429.505 121.46 431.645 117.96L425.265 114.88C424.345 116.56 423.005 117.52 421.085 117.52C419.065 117.52 417.305 116.24 416.665 114.02H432.945C433.645 105.4 428.365 100.62 421.085 100.62ZM421.085 106.48C423.385 106.48 424.985 107.76 425.545 109.98H416.625C417.205 107.76 418.785 106.48 421.085 106.48ZM450.661 123H458.141V112C458.141 104.92 456.001 100.62 449.681 100.62C446.421 100.62 444.101 101.74 443.041 103.62L442.701 101H435.541V123H443.041V112C443.041 108.86 444.421 106.96 447.081 106.96C449.661 106.96 450.661 108.76 450.661 112V123ZM462.381 96.12V101H459.721V106.82H462.381V114.68C462.381 120.5 464.541 123.36 470.421 123.36C471.541 123.36 473.601 123.22 474.781 123.04V116.92C473.501 117.14 472.301 117.16 471.361 116.82C470.361 116.52 469.861 115.74 469.861 114.4V106.82H474.781V101H469.861V96.12H462.381Z" fill="#0D3349"/>
<defs>
<linearGradient id="paint0_linear" x1="24.0239" y1="14.1721" x2="87.6112" y2="105.518" gradientUnits="userSpaceOnUse">
<stop offset="0.115679" stop-color="#BCEFF2"/>
<stop offset="0.47506" stop-color="#FFE3D9"/>
<stop offset="0.644313" stop-color="#FFF3B5"/>
<stop offset="0.860484" stop-color="#DCFFBC"/>
</linearGradient>
</defs>
</svg>
